<svg xmlns="http://www.w3.org/2000/svg" id="Calque_1" x="0" y="0" version="1.1" viewBox="0 0 143 32" xml:space="preserve"><style type="text/css">.st1{fill:#262626}</style><path fill="#FFF" d="M17.9 1c-.1-.6-.6-1-1.2-.9l-4.4.7c.3 1.9-1 3.6-2.8 3.9-1.9.3-3.6-1-3.9-2.8l-4.4.7c-.6.1-1 .6-.9 1.2l4.2 26.4c.1.6.6 1 1.2.9l4.4-.7c-.3-1.9 1-3.6 2.8-3.9 1.9-.3 3.6 1 3.9 2.8l4.4-.7c.6-.1 1-.6.9-1.2L17.9 1z"/><path d="M12.5 21.4l-.5-2.8c0-.2-.2-.4-.4-.6-.5-.4-2 .5-1.3-2.7s1.6-1.8 2.3-1.9c.2 0 .4-.2.6-.4l1.6-2.3c.2-.3.2-.7-.1-.9-.4-.5-1.2-1.1-1.7-1.2-1.2-.2-4 1.6-5 6.3-1 4.7.9 7.6 2 7.8.5.1 1.5-.2 2.1-.4.3-.2.5-.6.4-.9" class="st1"/><g><path d="M26.9 24.1l8-17.3c.1-.2.3-.3.4-.3h.3c.2 0 .4.1.4.3l8 17.3c.2.3-.1.7-.4.7h-2.8c-.5 0-.7-.2-.9-.6l-.9-2h-7l-.9 2.1c-.1.3-.4.6-.9.6h-2.8c-.4-.2-.6-.5-.5-.8zm10.6-5.5l-2-4.2-1.9 4.2h3.9zM45.4 7.2c0-.3.2-.5.5-.5H49c.3 0 .5.2.5.5V21h6.1c.3 0 .5.2.5.5v2.8c0 .3-.2.5-.5.5h-9.7c-.3 0-.5-.2-.5-.5V7.2zM57.8 7.2c0-.3.2-.5.5-.5h3.1c.3 0 .5.2.5.5V21H68c.3 0 .5.2.5.5v2.8c0 .3-.2.5-.5.5h-9.7c-.3 0-.5-.2-.5-.5V7.2zM78.3 6.5c5.1 0 9.2 4.1 9.2 9.3 0 5.1-4.1 9.2-9.2 9.2s-9.2-4.1-9.2-9.2c0-5.2 4.1-9.3 9.2-9.3zm0 14.4c2.8 0 5.1-2.3 5.1-5.1s-2.3-5.2-5.1-5.2-5.1 2.3-5.1 5.2c0 2.8 2.3 5.1 5.1 5.1zM98.2 6.5c2.6 0 4.5.8 6.2 2.4.2.2.2.5 0 .7l-2 2.1c-.2.2-.5.2-.6 0-1-.8-2.2-1.3-3.5-1.3-2.9 0-5 2.4-5 5.3s2.2 5.2 5.1 5.2c1.2 0 2.5-.4 3.4-1.2.2-.2.5-.2.7 0l2 2.1c.2.2.2.5 0 .7-1.7 1.7-4 2.5-6.2 2.5-5.1 0-9.3-4.1-9.3-9.2 0-5.2 4.1-9.3 9.2-9.3zM106.8 7.2c0-.3.2-.5.5-.5h3.1c.3 0 .5.2.5.5v17c0 .3-.2.5-.5.5h-3.1c-.3 0-.5-.2-.5-.5v-17zM113.3 7.2c0-.3.2-.5.5-.5h.5c.3 0 .7.3.8.4.1.1 9.6 9.2 9.6 9.2V7.2c0-.3.2-.5.5-.5h3.1c.3 0 .5.2.5.5v17c0 .3-.2.5-.5.5h-.5c-.3 0-.5-.2-.8-.5l-9.6-9.6v9.6c0 .3-.2.5-.5.5h-3.1c-.3 0-.5-.2-.5-.5v-17zM142.4 10.5c.3 0 .5-.2.5-.5V7.2c0-.3-.2-.5-.5-.5h-3.6l1.3-.9c.2-.2.3-.5 0-.8l-1.2-1.3c-.2-.2-.5-.1-.7.1l-2.9 2.8h-3.4c-.3 0-.5.2-.5.5v17c0 .3.2.5.5.5h10.6c.3 0 .5-.2.5-.5v-2.8c0-.3-.2-.5-.5-.5h-7.1v-3.5h5.9c.3 0 .5-.2.5-.5V14c0-.3-.2-.5-.5-.5h-5.9v-3.2h7z" class="st1"/></g></svg>